<?xml version="1.0" standalone="no"?>
<svg viewBox="0 0 200 200" xmlns="http://www.w3.org/2000/svg">
  <path fill="#A7F0BA" d="M39.9,-66.4C53.8,-61.1,68.6,-54.6,78.3,-43.4C88.1,-32.1,92.7,-16,93,0.2C93.3,16.4,89.2,32.8,80.5,45.8C71.8,58.9,58.5,68.6,44.3,74.4C30.2,80.1,15.1,81.9,0.2,81.5C-14.7,81.2,-29.4,78.7,-41,71.5C-52.7,64.3,-61.3,52.4,-68.7,39.6C-76,26.9,-82.1,13.5,-82,0.1C-81.9,-13.3,-75.6,-26.7,-69,-40.8C-62.5,-54.9,-55.6,-69.7,-44.1,-76.3C-32.5,-82.9,-16.3,-81.3,-1.6,-78.4C13,-75.6,26,-71.6,39.9,-66.4Z" transform="translate(100 100)" />
</svg>
